<?xml version="1.0" encoding="UTF-8"?>
<svg xmlns="http://www.w3.org/2000/svg" xmlns:xlink="http://www.w3.org/1999/xlink"
     width="995" height="168" viewBox="0 0 995 168">
<defs>
<path d="M0.0,38.27456002447437 L5.0,38.79769079502007 L10.0,39.66374337638972 L15.0,40.1855631885932 L20.0,40.65041146096031 L25.0,41.752003205815285 L30.0,41.956130832621334 L35.0,41.98572638579865 L40.0,41.14980326122329 L45.0,40.923137969032005 L50.0,40.44774094714912 L55.0,40.16836736627965 L60.0,39.71376962652688 L65.0,39.2321313170924 L70.0,38.563295502797345 L75.0,38.537794728150246 L80.0,38.18626948581858 L85.0,36.5121188922651 L90.0,35.66278073352904 L95.0,34.85555259539372 L100.0,33.44411374947798 L105.0,31.238245849043984 L110.0,28.447744766737582 L115.0,25.632305056315307 L120.0,22.708738326311956 L125.0,19.22619037416817 L130.0,16.78734736103554 L135.0,14.733844228101468 L140.0,14.08960638660747 L145.0,14.638006136720003 L150.0,15.112216949224969 L155.0,16.00477178804253 L160.0,16.969464521967716 L165.0,18.9407283172427 L170.0,20.605981822484043 L175.0,22.45102151623646 L180.0,24.066598744771287 L185.0,24.970129864025296 L190.0,25.38720835767635 L195.0,26.111277907249576 L200.0,25.35675794156657 L205.0,24.23743385237634 L210.0,23.347936240689076 L215.0,23.145335692981774 L220.0,22.596752722616998 L225.0,23.98771474002547 L230.0,23.072440943479545 L235.0,22.633234691331854 L240.0,23.911125258813055 L245.0,22.547698647879823 L250.0,22.704880547458927 L255.0,23.634394579222914 L260.0,24.78903520804253 L265.0,25.696561295628857 L270.0,26.792631573625723 L275.0,27.136576870144467 L280.0,28.448628704433197 L285.0,29.484485628294124 L290.0,28.370756172836842 L295.0,27.513118172962574 L300.0,27.387548723853797 L305.0,27.07290833857444 L310.0,27.132932631404103 L315.0,27.832420221989043 L320.0,27.428114563379086 L325.0,27.25445288958535 L330.0,27.607635037562478 L335.0,28.90194410909862 L340.0,29.5664208217175 L345.0,31.273229953569302 L350.0,30.68340560029029 L355.0,30.7792285851835 L360.0,31.188955706284677 L365.0,28.712635286655004 L370.0,26.872883398688813 L375.0,25.361690655382898 L380.0,24.18433214390468 L385.0,23.105988890519757 L390.0,21.924885434687265 L395.0,21.771640079406467 L400.0,23.532605049988007 L405.0,25.327532818128606 L410.0,25.25296659882426 L415.0,25.47825299738772 L420.0,25.094768148522615 L425.0,25.59245382784549 L430.0,26.28730422304875 L435.0,27.207701303445408 L440.0,27.412746435416494 L445.0,28.036614545249375 L450.0,27.64483867401705 L455.0,27.441523881880133 L460.0,27.56959553234853 L465.0,27.631140755190938 L470.0,28.199463941049846 L475.0,29.10049551991861 L480.0,29.24345059446928 L485.0,29.438077114140828 L490.0,28.62675029764393 L495.0,28.363563709081085 L500.0,27.729048741452097 L505.0,26.89859066036664 L510.0,26.075249270399482 L515.0,26.56120369018915 L520.0,26.774133622607085 L525.0,27.69567174731611 L530.0,28.609653889876412 L535.0,28.73081413089784 L540.0,28.148843603110592 L545.0,28.734598649487573 L550.0,29.4490168302681 L555.0,30.302992068202148 L560.0,30.735273345420705 L565.0,31.24034874025538 L570.0,30.153409103069986 L575.0,29.23381240780209 L580.0,28.490270117019254 L585.0,27.444784827463018 L590.0,26.25356034686556 L595.0,25.139276491894485 L600.0,23.398564455122848 L605.0,23.199281201527953 L610.0,21.879940233502573 L615.0,21.149031290303515 L620.0,19.974286167669618 L625.0,19.599173636519687 L630.0,19.742423401523922 L635.0,20.472968039577037 L640.0,20.54886507801394 L645.0,21.42494234556543 L650.0,22.764296576083794 L655.0,23.17360521762732 L660.0,23.623650167684367 L665.0,23.538685849791435 L670.0,23.68505171662455 L675.0,23.591612048341695 L680.0,23.730868082879073 L685.0,24.099723423166076 L690.0,24.41906429325595 L695.0,24.602492173576962 L700.0,24.888776848998383 L705.0,24.578322052783452 L710.0,23.512749000267675 L715.0,22.466758361569273 L720.0,21.735810057296952 L725.0,20.57665213873383 L730.0,19.178298005365964 L735.0,17.523376057738002 L740.0,16.61420868137348 L745.0,16.383828806815572 L750.0,16.539354930247956 L755.0,16.493592605419735 L760.0,17.199833439734864 L765.0,18.78901469079112 L770.0,21.67848611729478 L775.0,23.757777148177848 L780.0,25.425161669323206 L785.0,25.94378852358071 L790.0,25.871210573313217 L795.0,24.696733246402957 L800.0,23.07389248498167 L805.0,21.608648056234824 L810.0,20.225580475473336 L815.0,20.177462055885737 L820.0,18.04186463282743 L825.0,16.423880044574847 L830.0,16.339774763991162 L835.0,15.885839319050831 L840.0,16.144644332022573 L845.0,16.74995954248324 L850.0,18.06701779903247 L855.0,19.891585256976374 L860.0,20.776689887538105 L865.0,22.35686487780541 L870.0,23.61648849944954 L875.0,23.5675520320012 L880.0,23.270473716673212 L885.0,23.344069531302427 L890.0,22.988967570212225 L895.0,22.932664107351922 L900.0,23.190348439139434 L905.0,22.170145059203822 L910.0,21.91352243838253 L915.0,21.398999498754986 L920.0,20.580667751830667 L925.0,20.53940715305073 L930.0,21.33045787818705 L935.0,22.776705918986732 L940.0,22.46446869567779 L945.0,23.69544260590527 L950.0,25.237545775543744 L955.0,25.013176283848807 L960.0,24.99809831935584 L965.0,25.201798315015555 L970.0,25.169067662655976 L975.0,25.448699273705174 L980.0,24.036312521993334 L985.0,23.52112148320787 L990.0,22.934831589274808 L995.0,22.119345005230496" fill="none" stroke="black" id="pic0" />
</defs>
<use xlink:href="#pic0" x="0" y="0" stroke="red" transform="scale(1, 4)" />
</svg>